<?xml version="1.0" encoding="utf-8"?>
<!-- Generator: Adobe Illustrator 24.0.3, SVG Export Plug-In . SVG Version: 6.00 Build 0)  -->
<svg version="1.1" id="Layer_1" xmlns="http://www.w3.org/2000/svg" xmlns:xlink="http://www.w3.org/1999/xlink" x="0px" y="0px"
	 viewBox="0 0 367.69 128.41" style="enable-background:new 0 0 367.69 128.41;" xml:space="preserve">
<style type="text/css">
	.st0{fill:#FFFFFF;}
</style>
<g>
	<path class="st0" d="M367.41,118.55c0-5.84-4.64-8.27-9.81-10.59c-4.55-2.07-9.14-3.87-9.14-9.4c0-4.44,3.88-7.75,9.3-7.75
		c3.2,0,5.99,1.14,7.96,2.48l0.88-1.4c-2.22-1.5-5.21-2.58-8.62-2.58c-6.61,0-11.15,3.97-11.15,9.45c0,5.89,4.69,8.26,9.86,10.59
		c4.55,2.07,9.09,3.93,9.09,9.4c0,4.96-4.44,8.16-9.61,8.16c-3.88,0-7.29-1.39-10.43-3.41l-0.83,1.39c3.35,2.17,7.17,3.51,11,3.51
		C362.09,128.41,367.41,124.75,367.41,118.55 M337.76,128.1V89.94h-1.7v34.18L310.4,89.58l-0.57,0.05v38.16h1.59V93.45l25.77,34.7
		L337.76,128.1z M298.57,108.89c0,10.12-7.08,17.82-16.84,17.82c-9.76,0-16.84-7.7-16.84-17.82s7.08-17.92,16.84-17.92
		C291.49,90.97,298.57,98.77,298.57,108.89 M300.32,108.89c0-11.05-8-19.42-18.59-19.42c-10.59,0-18.59,8.36-18.59,19.42
		s8,19.31,18.59,19.31C292.32,128.21,300.32,119.95,300.32,108.89 M253.48,89.94h-1.7v37.85h1.7V89.94z M245.26,91.43v-1.49h-27.83
		v1.49h13.07v36.36h1.7V91.43H245.26z M215.31,123.61l-0.78-1.24c-3.72,2.53-7.54,4.34-12.86,4.34c-9.04,0-17.82-6.25-17.82-17.77
		c0-11.57,8.83-18.13,17.82-18.13c5.42,0.05,9.25,1.86,12.96,4.55l0.88-1.34c-3.87-2.79-7.95-4.69-13.84-4.69
		c-10.12,0-19.57,7.23-19.57,19.67c0,12.29,9.34,19.21,19.52,19.21C207.51,128.21,211.49,126.3,215.31,123.61 M172.5,113.96V89.94
		h-1.7v24.17c0,7.8-4.7,12.55-12.35,12.55c-7.65,0-12.24-4.6-12.24-12.55V89.94h-1.7v24.02c0,9.19,5,14.25,13.94,14.25
		C167.08,128.21,172.5,122.94,172.5,113.96 M133.66,108.53c0,10.23-7.03,18.18-19.94,18.18c-2.58,0-5.01-0.21-6.61-0.41V91.43
		c1.6-0.21,4.03-0.41,6.61-0.41C126.58,91.02,133.66,99.28,133.66,108.53 M135.41,108.53c0-9.66-7.48-19-21.43-19
		c-3.36,0-6.82,0.31-8.57,0.57v37.55c1.75,0.26,5.21,0.57,8.57,0.57C127.93,128.21,135.41,119.22,135.41,108.53 M93.89,108.89
		c0,10.12-7.08,17.82-16.84,17.82c-9.76,0-16.84-7.7-16.84-17.82s7.08-17.92,16.84-17.92C86.82,90.97,93.89,98.77,93.89,108.89
		 M95.64,108.89c0-11.05-8-19.42-18.59-19.42c-10.59,0-18.59,8.36-18.59,19.42s8,19.31,18.59,19.31
		C87.64,128.21,95.64,119.95,95.64,108.89 M49.22,100.78c0,6.2-5.06,10.08-13.17,10.08c-1.65,0-3.62-0.21-4.96-0.41V91.64
		c2.27-0.31,3.67-0.46,5.79-0.46C45.03,91.17,49.22,95.15,49.22,100.78 M52.67,127.79l-10.95-16.21c5.89-1.6,9.24-5.73,9.24-10.79
		c0-6.77-5.21-11.1-14.1-11.1c-2.74,0-4.7,0.26-7.48,0.62v37.49h1.7v-15.85c1.29,0.21,3.51,0.36,4.96,0.36
		c1.45,0,2.79-0.1,4.03-0.36l10.59,15.85H52.67z M19.73,101.71c0,7.03-4.96,11.47-13.07,11.47c-1.65,0-3.62-0.21-4.96-0.41V91.48
		c1.71-0.16,3.41-0.31,5.22-0.31C15.39,91.17,19.73,96.03,19.73,101.71 M21.48,101.71c0-6.46-4.8-12.03-14.56-12.03
		c-2.43,0-4.7,0.16-6.92,0.41v37.7h1.7v-13.53c1.29,0.21,3.51,0.36,4.96,0.36C15.96,114.62,21.48,109.31,21.48,101.71"/>
</g>
<path class="st0" d="M367.69,56.99h-24.42v9.7l4.39-4.94h15.92L367.69,56.99z M335.76,0h-10.15v66.96l4.94-4.48V4.85L335.76,0z
	 M304.48,62.48l-3.29-10.06l-4.12,4.85l3.11,9.88L304.48,62.48z M278.96,20.67l-2.47-7.96l-17.01,54.06l6.77-4.57L278.96,20.67z
	 M300.55,50.58L285.64,4.66L289.3,0h-9.79l14.09,45.83h-9.06l-2.84,9.61l6.13-4.85H300.55z M243.84,0h-10.15v66.96l4.94-4.48V4.85
	L243.84,0z M212.1,76.75L212,70.16l-6.77-6.59l-1.65,4.67L212.1,76.75z M183.28,57.08h-6.86l-1.28,4.67h3.93L183.28,57.08z
	 M204.41,61.74v-51.5l-3.66-3.66l-1.28,4.85v45.64h-8.78v9.61l4.39-4.94H204.41z M183.28,0h-10.25l-8.87,8.87v50.03l8.32,8.23
	l1.19-4.57l-4.57-4.48V9.7l4.94-4.94h5.03L183.28,0z M201.12,0h-10.43v9.7l4.39-4.94h4.85L201.12,0z M150.26,56.99h-23.23v9.7
	l4.39-4.94h14.73L150.26,56.99z M119.53,0h-10.15v66.96l4.94-4.48V4.85L119.53,0z M136.17,28.54h-14.82l-4.85,4.76h14.82
	L136.17,28.54z M150.26,0h-23.23v9.7l4.39-4.94h14.73L150.26,0z M91.9,57.08H73.42l-2.47,4.67h16.74L91.9,57.08z M94.65,0h-9.88
	L49.55,66.68l6.77-4.12l30.64-57.9L94.65,0z M76.9,0H53.3v9.7l4.39-4.94h16.65L76.9,0z M41.04,56.99H17.81v9.7l4.39-4.94h14.73
	L41.04,56.99z M10.31,0H0.16v66.96l4.94-4.48V4.85L10.31,0z M26.96,28.54H12.14L7.29,33.3h14.82L26.96,28.54z M41.04,0H17.81v9.7
	l4.39-4.94h14.73L41.04,0z"/>
</svg>
