<?xml version="1.0" encoding="utf-8"?>
<!-- Generator: Adobe Illustrator 24.1.0, SVG Export Plug-In . SVG Version: 6.00 Build 0)  -->
<svg version="1.1" id="Layer_1" xmlns="http://www.w3.org/2000/svg" xmlns:xlink="http://www.w3.org/1999/xlink" x="0px" y="0px"
	 viewBox="0 0 367.7 128.4" style="enable-background:new 0 0 367.7 128.4;" xml:space="preserve">
<style type="text/css">
	.st0{fill:#191C1F;}
</style>
<g>
	<path class="st0" d="M367.4,118.6c0-5.8-4.6-8.3-9.8-10.6c-4.5-2.1-9.1-3.9-9.1-9.4c0-4.4,3.9-7.8,9.3-7.8c3.2,0,6,1.1,8,2.5
		l0.9-1.4c-2.2-1.5-5.2-2.6-8.6-2.6c-6.6,0-11.1,4-11.1,9.4c0,5.9,4.7,8.3,9.9,10.6c4.5,2.1,9.1,3.9,9.1,9.4c0,5-4.4,8.2-9.6,8.2
		c-3.9,0-7.3-1.4-10.4-3.4l-0.8,1.4c3.4,2.2,7.2,3.5,11,3.5C362.1,128.4,367.4,124.8,367.4,118.6 M337.8,128.1V89.9h-1.7v34.2
		l-25.7-34.5l-0.6,0.1v38.2h1.6V93.5l25.8,34.7L337.8,128.1z M298.6,108.9c0,10.1-7.1,17.8-16.8,17.8s-16.8-7.7-16.8-17.8
		S272,91,281.7,91C291.5,91,298.6,98.8,298.6,108.9 M300.3,108.9c0-11.1-8-19.4-18.6-19.4s-18.6,8.4-18.6,19.4s8,19.3,18.6,19.3
		C292.3,128.2,300.3,120,300.3,108.9 M253.5,89.9h-1.7v37.8h1.7V89.9z M245.3,91.4v-1.5h-27.8v1.5h13.1v36.4h1.7V91.4H245.3z
		 M215.3,123.6l-0.8-1.2c-3.7,2.5-7.5,4.3-12.9,4.3c-9,0-17.8-6.2-17.8-17.8c0-11.6,8.8-18.1,17.8-18.1c5.4,0.1,9.2,1.9,13,4.6
		l0.9-1.3c-3.9-2.8-7.9-4.7-13.8-4.7c-10.1,0-19.6,7.2-19.6,19.7c0,12.3,9.3,19.2,19.5,19.2C207.5,128.2,211.5,126.3,215.3,123.6
		 M172.5,114v-24h-1.7v24.2c0,7.8-4.7,12.6-12.4,12.6c-7.6,0-12.2-4.6-12.2-12.6V89.9h-1.7v24c0,9.2,5,14.3,13.9,14.3
		C167.1,128.2,172.5,122.9,172.5,114 M133.7,108.5c0,10.2-7,18.2-19.9,18.2c-2.6,0-5-0.2-6.6-0.4V91.4c1.6-0.2,4-0.4,6.6-0.4
		C126.6,91,133.7,99.3,133.7,108.5 M135.4,108.5c0-9.7-7.5-19-21.4-19c-3.4,0-6.8,0.3-8.6,0.6v37.5c1.8,0.3,5.2,0.6,8.6,0.6
		C127.9,128.2,135.4,119.2,135.4,108.5 M93.9,108.9c0,10.1-7.1,17.8-16.8,17.8s-16.8-7.7-16.8-17.8S67.3,91,77.1,91
		C86.8,91,93.9,98.8,93.9,108.9 M95.6,108.9c0-11.1-8-19.4-18.6-19.4s-18.6,8.4-18.6,19.4s8,19.3,18.6,19.3
		C87.6,128.2,95.6,120,95.6,108.9 M49.2,100.8c0,6.2-5.1,10.1-13.2,10.1c-1.7,0-3.6-0.2-5-0.4V91.6c2.3-0.3,3.7-0.5,5.8-0.5
		C45,91.2,49.2,95.2,49.2,100.8 M52.7,127.8l-11-16.2c5.9-1.6,9.2-5.7,9.2-10.8c0-6.8-5.2-11.1-14.1-11.1c-2.7,0-4.7,0.3-7.5,0.6
		v37.5h1.7V112c1.3,0.2,3.5,0.4,5,0.4s2.8-0.1,4-0.4l10.6,15.8L52.7,127.8L52.7,127.8z M19.7,101.7c0,7-5,11.5-13.1,11.5
		c-1.7,0-3.6-0.2-5-0.4V91.5c1.7-0.2,3.4-0.3,5.2-0.3C15.4,91.2,19.7,96,19.7,101.7 M21.5,101.7c0-6.5-4.8-12-14.6-12
		c-2.4,0-4.7,0.2-6.9,0.4v37.7h1.7v-13.5c1.3,0.2,3.5,0.4,5,0.4C16,114.6,21.5,109.3,21.5,101.7"/>
</g>
<path class="st0" d="M367.7,57h-24.4v9.7l4.4-4.9h15.9L367.7,57z M335.8,0h-10.1v67l4.9-4.5V4.9L335.8,0z M304.5,62.5l-3.3-10.1
	l-4.1,4.8l3.1,9.9L304.5,62.5z M279,20.7l-2.5-8l-17,54.1l6.8-4.6L279,20.7z M300.5,50.6L285.6,4.7l3.7-4.7h-9.8l14.1,45.8h-9.1
	l-2.8,9.6l6.1-4.8L300.5,50.6L300.5,50.6z M243.8,0h-10.1v67l4.9-4.5V4.9L243.8,0z M212.1,76.8l-0.1-6.6l-6.8-6.6l-1.6,4.7
	L212.1,76.8z M183.3,57.1h-6.9l-1.3,4.7h3.9L183.3,57.1z M204.4,61.7V10.2l-3.7-3.7l-1.3,4.9v45.6h-8.8v9.6l4.4-4.9H204.4z M183.3,0
	H173l-8.9,8.9v50l8.3,8.2l1.2-4.6l-4.6-4.5V9.7l4.9-4.9h5L183.3,0z M201.1,0h-10.4v9.7l4.4-4.9h4.9L201.1,0z M150.3,57H127v9.7
	l4.4-4.9h14.7L150.3,57z M119.5,0h-10.2v67l4.9-4.5V4.9L119.5,0z M136.2,28.5h-14.8l-4.8,4.8h14.8L136.2,28.5z M150.3,0H127v9.7
	l4.4-4.9h14.7L150.3,0z M91.9,57.1H73.4l-2.5,4.7h16.7L91.9,57.1z M94.7,0h-9.9L49.5,66.7l6.8-4.1L87,4.7L94.7,0z M76.9,0H53.3v9.7
	l4.4-4.9h16.6L76.9,0z M41,57H17.8v9.7l4.4-4.9h14.7L41,57z M10.3,0H0.2v67l4.9-4.5V4.9L10.3,0z M27,28.5H12.1l-4.9,4.8h14.8
	L27,28.5z M41,0H17.8v9.7l4.4-4.9h14.7L41,0z"/>
</svg>
