<?xml version="1.0" encoding="utf-8"?>
<!-- Generator: Adobe Illustrator 24.1.0, SVG Export Plug-In . SVG Version: 6.00 Build 0)  -->
<svg version="1.1" id="Layer_1" focusable="false" xmlns="http://www.w3.org/2000/svg" xmlns:xlink="http://www.w3.org/1999/xlink"
	 x="0px" y="0px" viewBox="0 0 48 48" style="enable-background:new 0 0 48 48;" xml:space="preserve">
<style type="text/css">
	.st0{fill-rule:evenodd;clip-rule:evenodd;}
</style>
<path class="st0" d="M0,4c0-2.2,1.8-4,4-4h40c2.2,0,4,1.8,4,4v40c0,2.2-1.8,4-4,4H4c-2.2,0-4-1.8-4-4V4z M19,18.3h6.5v3.3
	c0.9-1.9,3.3-3.6,6.9-3.6c6.9,0,8.6,3.7,8.6,10.6v12.7h-7V30.2c0-3.9-0.9-6.1-3.3-6.1c-3.3,0-4.7,2.4-4.7,6.1v11.1h-7V18.3z M7,41h7
	V18H7V41z M15,10.5c0,2.5-2,4.5-4.5,4.5S6,13,6,10.5S8,6,10.5,6S15,8,15,10.5z"/>
</svg>
