<?xml version="1.0" encoding="utf-8"?>
<!-- Generator: Adobe Illustrator 24.1.0, SVG Export Plug-In . SVG Version: 6.00 Build 0)  -->
<svg version="1.1" id="Layer_1" xmlns="http://www.w3.org/2000/svg" xmlns:xlink="http://www.w3.org/1999/xlink" x="0px" y="0px"
	 viewBox="0 0 86.7 75" style="enable-background:new 0 0 86.7 75;" xml:space="preserve">
<g>
	<path d="M86.7,17.4c-0.4,8.4-6.3,20-17.7,34.7C57.2,67.3,47.2,75,39.1,75c-5.1,0-9.3-4.7-12.8-14c-2.3-8.6-4.7-17.1-7-25.7
		c-2.6-9.3-5.4-14-8.4-14c-0.6,0-2.9,1.4-6.8,4.1L0,20.2c4.3-3.8,8.5-7.5,12.7-11.3c5.7-4.9,10-7.5,12.9-7.8
		c6.7-0.6,10.9,4,12.5,13.8c1.7,10.7,2.9,17.3,3.5,19.9c1.9,8.8,4.1,13.3,6.4,13.3c1.8,0,4.5-2.9,8.2-8.6c3.6-5.7,5.6-10.1,5.8-13.1
		c0.5-4.9-1.4-7.4-5.8-7.4c-2.1,0-4.2,0.5-6.4,1.4C53.9,6.4,62.1-0.4,74.1,0C83,0.3,87.2,6.1,86.7,17.4z"/>
</g>
</svg>
